<?xml version="1.0" encoding="UTF-8"?>
<svg width="20px" height="20px" viewBox="0 0 20 20" version="1.1" xmlns="http://www.w3.org/2000/svg" xmlns:xlink="http://www.w3.org/1999/xlink">
    <title>ICON/20/侧导/Anime_选中</title>
    <g id="ICON/20/侧导/Anime_选中" stroke="none" stroke-width="1" fill="none" fill-rule="evenodd">
        <g id="占位" opacity="0" stroke="#979797">
            <path d="M16,4 L16,16 L4,16 L4,4 L16,4 Z" id="Rectangle-3-Copy-2" stroke-width="8" fill="#D8D8D8" opacity="0.3"></path>
            <rect id="Rectangle-Copy-2" opacity="0.3" x="2.33265306" y="2.3" width="15.3346939" height="15.4"></rect>
            <rect id="Rectangle-Copy-2" opacity="0.3" x="3.36530612" y="1.3" width="13.2693878" height="17.4"></rect>
            <rect id="Rectangle-Copy-2" opacity="0.3" x="1.3" y="3.4" width="17.4" height="13.2"></rect>
            <circle id="Oval-2" opacity="0.3" cx="10" cy="10" r="8.7"></circle>
        </g>
        <g id="编组-2" opacity="0.9" transform="translate(1.000000, 2.500000)" fill="#333333">
            <path d="M15.4361148,1.03584031e-16 C16.3276335,-6.01853049e-17 16.6509198,0.0928256111 16.9768457,0.267132704 C17.3027716,0.441439796 17.5585602,0.697228371 17.7328673,1.0231543 C17.9071744,1.34908022 18,1.67236646 18,2.5638852 L18,9.4361148 C18,10.3276335 17.9071744,10.6509198 17.7328673,10.9768457 C17.5585602,11.3027716 17.3027716,11.5585602 16.9768457,11.7328673 C16.6509198,11.9071744 16.3276335,12 15.4361148,12 L2.5638852,12 C1.67236646,12 1.34908022,11.9071744 1.0231543,11.7328673 C0.697228371,11.5585602 0.441439796,11.3027716 0.267132704,10.9768457 C0.0928256111,10.6509198 4.01235366e-17,10.3276335 -6.90560205e-17,9.4361148 L6.90560205e-17,2.5638852 C-4.01235366e-17,1.67236646 0.0928256111,1.34908022 0.267132704,1.0231543 C0.441439796,0.697228371 0.697228371,0.441439796 1.0231543,0.267132704 C1.34908022,0.0928256111 1.67236646,6.01853049e-17 2.5638852,-1.03584031e-16 L15.4361148,1.03584031e-16 Z M8.16447613,3.63755003 C7.68021082,3.29540678 7,3.6307682 7,4.21163181 L7,4.21163181 L7,7.78836819 C7,8.3692318 7.68021082,8.70459322 8.16447613,8.36244997 L8.16447613,8.36244997 L10.6984714,6.57442088 C11.1005095,6.29060135 11.1005095,5.70939865 10.6984714,5.42557912 L10.6984714,5.42557912 Z" id="形状结合"></path>
            <path d="M13,13.75 C13.4142136,13.75 13.75,14.0857864 13.75,14.5 C13.75,14.8796958 13.4678461,15.193491 13.1017706,15.2431534 L13,15.25 L5,15.25 C4.58578644,15.25 4.25,14.9142136 4.25,14.5 C4.25,14.1203042 4.53215388,13.806509 4.89822944,13.7568466 L5,13.75 L13,13.75 Z" id="路径" fill-rule="nonzero"></path>
        </g>
    </g>
</svg>