<?xml version="1.0" encoding="UTF-8"?>
<svg width="20px" height="20px" viewBox="0 0 20 20" version="1.1" xmlns="http://www.w3.org/2000/svg" xmlns:xlink="http://www.w3.org/1999/xlink">
    <title>ICON/20/侧导/首页_未选中</title>
    <g id="ICON/20/侧导/首页_未选中" stroke="none" stroke-width="1" fill="none" fill-rule="evenodd">
        <g id="ICON/40">
            <g id="占位" opacity="0" stroke="#979797">
                <path d="M16,4 L16,16 L4,16 L4,4 L16,4 Z" id="Rectangle-3-Copy-2" stroke-width="8" fill="#D8D8D8" opacity="0.3"></path>
                <rect id="Rectangle-Copy-2" opacity="0.3" x="2.33265306" y="2.3" width="15.3346939" height="15.4"></rect>
                <rect id="Rectangle-Copy-2" opacity="0.3" x="3.36530612" y="1.3" width="13.2693878" height="17.4"></rect>
                <rect id="Rectangle-Copy-2" opacity="0.3" x="1.3" y="3.4" width="17.4" height="13.2"></rect>
                <circle id="Oval-2" opacity="0.3" cx="10" cy="10" r="8.7"></circle>
            </g>
            <path d="M11.1827273,2.38671009 L16.6827273,6.4150441 C17.1964775,6.79132727 17.5,7.3895576 17.5,8.02585501 L17.5,16.002479 C17.5,17.1056794 16.6045695,18 15.5,18 L14,18 C12.8954305,18 12,17.1045695 12,16 L12,14.004958 C12,13.2071077 11.37554,12.5549271 10.5881364,12.5093604 L10.5,12.5068173 L9.5,12.5068173 C8.70115956,12.5068173 8.04816956,13.1305032 8.00254635,13.9169309 L8,14.004958 L8,16 C8,17.1045695 7.1045695,18 6,18 L4.5,18 C3.3954305,18 2.5,17.1056794 2.5,16.002479 L2.5,8.02585501 C2.5,7.3895576 2.80352247,6.79132727 3.31727267,6.4150441 L8.81727267,2.38671009 C9.52125451,1.87109664 10.4787455,1.87109664 11.1827273,2.38671009 Z M10.2963973,3.59684192 C10.1452875,3.48616544 9.94722319,3.47035451 9.78269783,3.54940914 L9.70360271,3.59684192 L4.20360271,7.62517593 C4.10111448,7.70024081 4.03230168,7.81048097 4.00887609,7.93249886 L4,8.02585501 L4,16.002479 C4,16.2463515 4.17654633,16.4497759 4.41001476,16.4919706 L4.5,16.5 L6,16.5 C6.24545989,16.5 6.44960837,16.3231248 6.49194433,16.0898756 L6.5,16 L6.50062718,13.9615859 L6.50506415,13.8300571 C6.59345794,12.3063738 7.8134627,11.0992079 9.32441589,11.0118784 L9.5,11.0068173 L10.5432647,11.0074413 L10.6747957,11.0118658 C12.1987736,11.1000577 13.4074883,12.3186627 13.4949322,13.8293941 L13.5,14.004958 L13.5,16 C13.5,16.2454599 13.6768752,16.4496084 13.9101244,16.4919443 L14,16.5 L15.5,16.5 C15.7458298,16.5 15.9496906,16.3236725 15.991958,16.0917993 L16,16.002479 L16,8.02585501 C16,7.8994106 15.9516848,7.77889454 15.8667663,7.68770437 L15.7963973,7.62517593 L10.2963973,3.59684192 Z" id="路径" fill="#333333" fill-rule="nonzero"></path>
        </g>
    </g>
</svg>